<?xml version="1.0" encoding="utf-8"?>
<!-- Generator: Adobe Illustrator 27.5.0, SVG Export Plug-In . SVG Version: 6.00 Build 0)  -->
<svg version="1.1" xmlns="http://www.w3.org/2000/svg" xmlns:xlink="http://www.w3.org/1999/xlink" x="0px" y="0px"
	 viewBox="0 0 820 312" style="enable-background:new 0 0 820 312;" xml:space="preserve">
<g id="BACKGROUND">
	<rect style="fill:#FDFCEA;" width="820" height="312"/>
</g>
<g id="OBJECTS">
	<g>
		<g>
			<g>
				<path style="fill:#5BA080;" d="M290.195,265.175c-0.45,0-0.815,0.365-0.815,0.815s0.365,0.815,0.815,0.815
					c0.45,0,0.815-0.365,0.815-0.815S290.645,265.175,290.195,265.175z"/>
				<path style="fill:#5BA080;" d="M286.571,266.22c-1.888,0-3.425,1.536-3.425,3.425c0,1.888,1.536,3.425,3.425,3.425
					c1.888,0,3.424-1.536,3.424-3.425C289.995,267.756,288.459,266.22,286.571,266.22z M286.571,271.839
					c-1.21,0-2.194-0.984-2.194-2.194c0-1.21,0.984-2.194,2.194-2.194c1.209,0,2.193,0.984,2.193,2.194
					C288.764,270.855,287.78,271.839,286.571,271.839z"/>
				<path style="fill:#5BA080;" d="M289.289,276.598h-5.552c-2.303,0-4.177-1.874-4.177-4.177v-5.552
					c0-2.303,1.874-4.177,4.177-4.177h5.552c2.303,0,4.177,1.874,4.177,4.177v5.552
					C293.467,274.724,291.593,276.598,289.289,276.598z M283.738,264c-1.582,0-2.869,1.287-2.869,2.869v5.552
					c0,1.582,1.287,2.869,2.869,2.869h5.552c1.582,0,2.869-1.287,2.869-2.869v-5.552c0-1.582-1.287-2.869-2.869-2.869H283.738z"/>
			</g>
		</g>
		<path style="fill:#5BA080;" d="M258.555,270.514l0.386-2.517h-2.415v-1.633c0-0.689,0.337-1.36,1.419-1.36h1.098v-2.143
			c0,0-0.996-0.17-1.949-0.17c-1.989,0-3.289,1.205-3.289,3.387v1.918h-2.211v2.517h2.211v6.084h2.721v-6.084H258.555z"/>
		<path style="fill:#5BA080;" d="M329.229,264.359c-0.536,0.243-1.13,0.39-1.709,0.487c0.275-0.046,0.678-0.544,0.84-0.745
			c0.247-0.307,0.452-0.656,0.567-1.034c0.015-0.029,0.026-0.066-0.004-0.089c-0.037-0.015-0.061-0.007-0.091,0.008
			c-0.646,0.346-1.315,0.597-2.026,0.775c-0.059,0.015-0.103,0-0.14-0.037c-0.059-0.066-0.115-0.129-0.177-0.181
			c-0.299-0.255-0.62-0.454-0.981-0.601c-0.475-0.194-0.994-0.275-1.505-0.242c-0.498,0.032-0.986,0.172-1.428,0.403
			c-0.443,0.231-0.838,0.553-1.152,0.941c-0.325,0.402-0.565,0.875-0.688,1.378c-0.118,0.485-0.109,0.964-0.036,1.454
			c0.011,0.082,0.004,0.092-0.07,0.082c-2.783-0.414-5.089-1.41-6.961-3.543c-0.081-0.093-0.125-0.093-0.192,0.007
			c-0.819,1.228-0.422,3.201,0.602,4.171c0.137,0.129,0.277,0.258,0.428,0.376c-0.055,0.012-0.736-0.062-1.343-0.376
			c-0.081-0.052-0.122-0.022-0.129,0.07c-0.008,0.133,0.004,0.255,0.022,0.398c0.157,1.245,1.019,2.396,2.2,2.846
			c0.14,0.059,0.295,0.111,0.446,0.136c-0.269,0.059-0.546,0.101-1.317,0.041c-0.096-0.018-0.133,0.03-0.096,0.122
			c0.58,1.58,1.831,2.05,2.768,2.318c0.125,0.022,0.251,0.022,0.377,0.051c-0.008,0.011-0.015,0.011-0.023,0.022
			c-0.31,0.474-1.388,0.827-1.89,1.002c-0.912,0.319-1.906,0.462-2.871,0.368c-0.154-0.023-0.187-0.021-0.229,0
			c-0.042,0.026-0.005,0.063,0.044,0.103c0.196,0.129,0.395,0.244,0.598,0.354c0.612,0.325,1.251,0.583,1.919,0.768
			c3.449,0.952,7.334,0.252,9.924-2.32c2.033-2.021,2.746-4.807,2.746-7.597c0-0.109,0.129-0.17,0.206-0.227
			c0.529-0.398,0.956-0.873,1.351-1.404c0.089-0.12,0.089-0.225,0.089-0.269c0-0.008,0-0.014,0-0.014
			C329.299,264.314,329.298,264.328,329.229,264.359z"/>
		<g>
			<path style="fill:#5BA080;" d="M346.387,276.598l0.997-3.72c-0.564-1.019-0.862-2.16-0.862-3.318
				c0-3.787,3.081-6.868,6.868-6.868c3.787,0,6.868,3.081,6.868,6.868s-3.081,6.868-6.868,6.868c-1.137,0-2.26-0.287-3.265-0.832
				L346.387,276.598z M350.312,274.202l0.235,0.141c0.864,0.515,1.848,0.787,2.844,0.787c3.071,0,5.57-2.499,5.57-5.57
				c0-3.071-2.499-5.57-5.57-5.57c-3.071,0-5.57,2.499-5.57,5.57c0,1.014,0.282,2.013,0.815,2.888l0.145,0.237l-0.557,2.077
				L350.312,274.202z"/>
			<path style="fill-rule:evenodd;clip-rule:evenodd;fill:#5BA080;" d="M355.946,270.515c-0.283-0.169-0.651-0.358-0.983-0.222
				c-0.256,0.105-0.419,0.505-0.584,0.709c-0.085,0.105-0.187,0.121-0.317,0.069c-0.959-0.382-1.694-1.022-2.223-1.905
				c-0.09-0.137-0.074-0.245,0.034-0.372c0.16-0.188,0.361-0.402,0.404-0.656c0.043-0.254-0.076-0.55-0.181-0.776
				c-0.134-0.289-0.284-0.7-0.573-0.864c-0.266-0.15-0.616-0.066-0.853,0.127c-0.409,0.333-0.606,0.855-0.6,1.371
				c0.002,0.147,0.02,0.293,0.054,0.435c0.082,0.341,0.24,0.659,0.417,0.962c0.134,0.228,0.279,0.45,0.436,0.663
				c0.513,0.697,1.151,1.303,1.89,1.755c0.369,0.226,0.767,0.424,1.179,0.56c0.462,0.153,0.873,0.311,1.372,0.217
				c0.522-0.099,1.037-0.422,1.244-0.926c0.061-0.149,0.092-0.315,0.058-0.472C356.649,270.866,356.209,270.673,355.946,270.515z"/>
		</g>
	</g>
	<g>
		
			<ellipse transform="matrix(0.9452 -0.3266 0.3266 0.9452 -3.8931 138.336)" style="fill:#FFFFFF;" cx="410" cy="80.761" rx="48.663" ry="48.663"/>
		
			<ellipse transform="matrix(0.9455 -0.3256 0.3256 0.9455 -3.952 137.9111)" style="fill:none;stroke:#5BA080;stroke-width:1.3338;stroke-miterlimit:10;" cx="410" cy="80.761" rx="43.318" ry="43.318"/>
		
			<ellipse transform="matrix(0.1762 -0.9844 0.9844 0.1762 258.2744 470.1218)" style="fill:none;stroke:#5BA080;stroke-width:1.3338;stroke-miterlimit:10;" cx="410" cy="80.761" rx="27.452" ry="27.452"/>
		
			<line style="fill:none;stroke:#5BA080;stroke-width:1.3338;stroke-miterlimit:10;" x1="366.741" y1="83.027" x2="382.548" y2="83.027"/>
		
			<line style="fill:none;stroke:#5BA080;stroke-width:1.3338;stroke-miterlimit:10;" x1="437.452" y1="83.027" x2="453.259" y2="83.027"/>
		<g>
			<path style="fill:none;stroke:#5BA080;stroke-width:1.3338;stroke-miterlimit:10;" d="M403.605,73.098
				c0,3.451-2.797,6.247-6.247,6.247c-3.45,0-6.247-2.797-6.247-6.247c0-3.45,2.797-6.247,6.247-6.247
				C400.808,66.85,403.605,69.647,403.605,73.098z"/>
			<path style="fill:none;stroke:#5BA080;stroke-width:1.3338;stroke-miterlimit:10;" d="M409.853,83.761
				c0,3.45-2.797,6.248-6.248,6.248c-3.45,0-6.247-2.797-6.247-6.248s2.797-6.247,6.247-6.247
				C407.056,77.514,409.853,80.311,409.853,83.761z"/>
			<path style="fill:none;stroke:#5BA080;stroke-width:1.3338;stroke-miterlimit:10;" d="M416.1,95.261
				c0,3.45-2.797,6.247-6.247,6.247c-3.451,0-6.248-2.797-6.248-6.247c0-3.451,2.797-6.248,6.248-6.248
				C413.303,89.014,416.1,91.811,416.1,95.261z"/>
			<path style="fill:none;stroke:#5BA080;stroke-width:1.3338;stroke-miterlimit:10;" d="M422.348,83.761
				c0,3.45-2.797,6.248-6.248,6.248c-3.45,0-6.247-2.797-6.247-6.248s2.797-6.247,6.247-6.247
				C419.551,77.514,422.348,80.311,422.348,83.761z"/>
			<path style="fill:none;stroke:#5BA080;stroke-width:1.3338;stroke-miterlimit:10;" d="M416.1,73.098
				c0,3.451-2.797,6.247-6.247,6.247c-3.451,0-6.248-2.797-6.248-6.247c0-3.45,2.797-6.247,6.248-6.247
				C413.303,66.85,416.1,69.647,416.1,73.098z"/>
			<path style="fill:none;stroke:#5BA080;stroke-width:1.3338;stroke-miterlimit:10;" d="M428.595,73.098
				c0,3.451-2.797,6.247-6.247,6.247c-3.451,0-6.248-2.797-6.248-6.247c0-3.45,2.797-6.247,6.248-6.247
				C425.798,66.85,428.595,69.647,428.595,73.098z"/>
		</g>
	</g>
	<g>
		<defs>
			<rect id="SVGID_1_" width="820" height="312"/>
		</defs>
		<clipPath id="SVGID_00000050648768706007340860000010494705048635260844_">
			<use xlink:href="#SVGID_1_"  style="overflow:visible;"/>
		</clipPath>
		<path style="clip-path:url(#SVGID_00000050648768706007340860000010494705048635260844_);fill:#E3841F;" d="M-9.829,92.832
			c0,0,36.805,27.53,94.843,19.047c58.038-8.483,89.704-122.144,81.657-121.936c-8.047,0.208-169.421-7.286-170.837,0
			C-5.582-2.771-9.829,92.832-9.829,92.832z"/>
		<path style="clip-path:url(#SVGID_00000050648768706007340860000010494705048635260844_);fill:#ACE568;" d="M498.811-30.853
			c0,0,47.997,102.148,141.134,106.792c93.137,4.644,154.471-100.391,154.471-100.391L498.811-30.853z"/>
		
			<path style="clip-path:url(#SVGID_00000050648768706007340860000010494705048635260844_);fill:none;stroke:#ACE568;stroke-width:5;stroke-miterlimit:10;" d="
			M108.477-34.581c0,0,25.021,93.254,100.323,98.348c75.303,5.095,116.794-77.738,116.794-77.738L108.477-34.581z"/>
		<path style="clip-path:url(#SVGID_00000050648768706007340860000010494705048635260844_);fill:#C8E4F0;" d="M594.705,341.751
			c0,0,51.908-118.134,147.63-135.067c132.771-23.486,132.857,139.892,132.857,139.892L594.705,341.751z"/>
		<path style="clip-path:url(#SVGID_00000050648768706007340860000010494705048635260844_);fill:#F9EBA6;" d="M-33.818,285.944
			c0,0,7.897-67.712,87.178-55.609c79.281,12.104,88.262,107.389,88.262,107.389H-23.91L-33.818,285.944z"/>
	</g>
	<g>
		<g>
			<path style="fill:#493851;" d="M151.938,115.757c0,0-0.751,5.285-4.016,6.815c-3.265,1.53-7.807-1.275-7.807-1.275
				s0.751-5.285,4.016-6.815C147.396,112.952,151.938,115.757,151.938,115.757z"/>
			<path style="fill:#493851;" d="M158.612,262.249c0,0,2.559,4.685,0.858,7.864s-7.019,3.648-7.019,3.648s-2.559-4.685-0.858-7.864
				C153.294,262.719,158.612,262.249,158.612,262.249z"/>
			<g>
				<path style="fill:#493851;" d="M626.168,116.014c0,0-2.566-4.681-0.869-7.863c1.697-3.181,7.014-3.658,7.014-3.658
					s2.566,4.681,0.869,7.863C631.485,115.538,626.168,116.014,626.168,116.014z"/>
				<path style="fill:#493851;" d="M661.639,122.934c0,0-4.973,1.94-7.909-0.154c-2.935-2.093-2.721-7.428-2.721-7.428
					s4.974-1.94,7.909,0.154C661.854,117.6,661.639,122.934,661.639,122.934z"/>
			</g>
			<path style="fill:#493851;" d="M58.026,268.005c0,0,2.559,4.685,0.858,7.864c-1.701,3.179-7.019,3.648-7.019,3.648
				s-2.559-4.685-0.858-7.864C52.708,268.474,58.026,268.005,58.026,268.005z"/>
		</g>
		<g>
			<g>
				<g>
					<path style="fill:#F4DA33;" d="M264.772,24.36c10.189,3.085,6.823,31.156,35.639,39.597
						c23.955,7.016,32.623,2.463,39.543,5.984c6.919,3.521-10.314,16.271-25.289,18.581c-14.976,2.31-46.302-6.319-56.399-24.777
						c-10.097-18.458-11.54-26.881-2.803-38.781c0,0,2.026-8.396,1.49-11.896c-0.536-3.501,4.547,1.377,4.547,1.377
						S262.994,23.822,264.772,24.36z"/>
					<g>
						<defs>
							<path id="SVGID_00000058549525364574849850000011309449846874547891_" d="M264.772,24.36
								c10.189,3.085,6.823,31.156,35.639,39.597c23.955,7.016,32.623,2.463,39.543,5.984c6.919,3.521-10.314,16.271-25.289,18.581
								c-14.976,2.31-46.302-6.319-56.399-24.777c-10.097-18.458-11.54-26.881-2.803-38.781c0,0,2.026-8.396,1.49-11.896
								c-0.536-3.501,4.547,1.377,4.547,1.377S262.994,23.822,264.772,24.36z"/>
						</defs>
						<clipPath id="SVGID_00000018222020325641824540000009324240996308593559_">
							<use xlink:href="#SVGID_00000058549525364574849850000011309449846874547891_"  style="overflow:visible;"/>
						</clipPath>
						<path style="opacity:0.43;clip-path:url(#SVGID_00000018222020325641824540000009324240996308593559_);fill:#A19E9E;" d="
							M257.045,9.563c0,0,5.786,14.908,3.418,17.565c-2.368,2.657-3.817,32.662,22.906,46.153
							c37.937,19.152,62.325-1.444,62.325-1.444l-5.641,29.794l-49.673,6.368l-55.574-39.213c0,0,1.053-36.106,1.56-37.518
							C236.873,29.856,257.045,9.563,257.045,9.563z"/>
						<path style="clip-path:url(#SVGID_00000018222020325641824540000009324240996308593559_);fill:#775915;" d="M345.28,72.153
							c-0.22,2.195-2.177,3.797-4.373,3.577c-2.195-0.22-3.797-2.177-3.577-4.373c0.22-2.195,2.177-3.797,4.373-3.577
							C343.898,67.999,345.499,69.957,345.28,72.153z"/>
					</g>
				</g>
				<g>
					<path style="fill:#F4DA33;" d="M258.591,23.55c8.407,6.531-4.793,31.533,19.086,49.737
						c19.85,15.133,29.575,13.988,34.773,19.754c5.198,5.767-15.459,11.495-30.268,8.287c-14.809-3.208-40.964-22.489-43.777-43.34
						c-2.813-20.851-1.143-29.231,11.278-37.21c0,0,4.9-7.112,5.654-10.573c0.754-3.46,3.752,2.915,3.752,2.915
						S257.124,22.41,258.591,23.55z"/>
					<g>
						<defs>
							<path id="SVGID_00000144302592619296872080000014855329547486382735_" d="M258.591,23.55
								c8.407,6.531-4.793,31.533,19.086,49.737c19.85,15.133,29.575,13.988,34.773,19.754c5.198,5.767-15.459,11.495-30.268,8.287
								c-14.809-3.208-40.964-22.489-43.777-43.34c-2.813-20.851-1.143-29.231,11.278-37.21c0,0,4.9-7.112,5.654-10.573
								c0.754-3.46,3.752,2.915,3.752,2.915S257.124,22.41,258.591,23.55z"/>
						</defs>
						<clipPath id="SVGID_00000169523206539271729630000001255259909115232701_">
							<use xlink:href="#SVGID_00000144302592619296872080000014855329547486382735_"  style="overflow:visible;"/>
						</clipPath>
						<path style="opacity:0.43;clip-path:url(#SVGID_00000169523206539271729630000001255259909115232701_);fill:#A19E9E;" d="
							M256.679,6.966c0,0,0.06,15.991-3.103,17.623c-3.163,1.633-12.91,27.754,4.85,51.296
							c25.593,33.927,58.705,20.983,58.705,20.983l-15.942,25.795l-48.657-11.853L214.697,54.29c0,0,13.92-33.331,14.899-34.468
							C230.575,18.685,256.679,6.966,256.679,6.966z"/>
						<path style="clip-path:url(#SVGID_00000169523206539271729630000001255259909115232701_);fill:#775915;" d="M316.63,97.015
							c-0.992,1.971-3.393,2.765-5.364,1.773c-1.971-0.992-2.765-3.393-1.773-5.364s3.393-2.765,5.364-1.773
							C316.828,92.642,317.622,95.044,316.63,97.015z"/>
					</g>
				</g>
			</g>
			<g>
				<path style="fill:#5BA080;" d="M62.545,172.455c0,0-2.056-26.343,14.175-26.066l2.441,4.517c0,0-9.653-2.306-14.183,10.361
					c-2.293,6.412,0.502,11.827,0.502,11.827L62.545,172.455z"/>
				<g>
					<g>
						<path style="fill:#5F71D5;" d="M100.407,195.722c-1.317,6.05-7.288,9.888-13.339,8.571c-6.05-1.316-9.888-7.288-8.571-13.339
							c1.316-6.05,7.288-9.888,13.339-8.571C97.886,183.7,101.724,189.672,100.407,195.722z"/>
						<path style="opacity:0.43;fill:#A19E9E;" d="M98.258,186.399c1.16,2.239,1.577,4.879,0.999,7.536
							c-1.317,6.05-7.289,9.888-13.339,8.572c-2.646-0.576-4.869-2.042-6.422-4.016c1.482,2.86,4.179,5.064,7.573,5.803
							c6.05,1.317,12.022-2.521,13.339-8.571C101.148,192.318,100.257,188.939,98.258,186.399z"/>
					</g>
					<g>
						<path style="fill:#5F71D5;" d="M68.034,180.246c-1.316,6.05-7.288,9.888-13.339,8.572c-6.05-1.316-9.888-7.288-8.571-13.339
							c1.316-6.05,7.288-9.888,13.339-8.571C65.513,168.223,69.351,174.195,68.034,180.246z"/>
						<path style="opacity:0.43;fill:#A19E9E;" d="M65.885,170.923c1.16,2.239,1.577,4.88,0.999,7.536
							c-1.316,6.05-7.288,9.888-13.339,8.572c-2.646-0.576-4.869-2.042-6.422-4.016c1.482,2.86,4.179,5.064,7.573,5.803
							c6.05,1.316,12.022-2.521,13.339-8.572C68.775,176.842,67.884,173.462,65.885,170.923z"/>
					</g>
					<g>
						<path style="fill:#5F71D5;" d="M73.559,199.437c-1.316,6.05-7.288,9.888-13.339,8.572c-6.05-1.317-9.888-7.288-8.571-13.339
							c1.316-6.05,7.288-9.888,13.339-8.571C71.038,187.415,74.875,193.387,73.559,199.437z"/>
						<path style="opacity:0.43;fill:#A19E9E;" d="M73.559,199.437c-1.316,6.05-7.288,9.888-13.339,8.572
							c-6.05-1.317-9.888-7.288-8.571-13.339c1.316-6.05,7.288-9.888,13.339-8.571C71.038,187.415,74.875,193.387,73.559,199.437z"
							/>
						<path style="opacity:0.43;fill:#A19E9E;" d="M71.41,190.114c1.16,2.239,1.577,4.879,0.999,7.536
							c-1.316,6.05-7.288,9.888-13.339,8.572c-2.646-0.576-4.869-2.042-6.422-4.016c1.482,2.861,4.179,5.064,7.573,5.803
							c6.05,1.316,12.022-2.521,13.339-8.572C74.299,196.033,73.408,192.653,71.41,190.114z"/>
					</g>
					<g>
						<path style="fill:#5F71D5;" d="M54.227,190.974c-1.317,6.05-7.288,9.888-13.339,8.571c-6.05-1.316-9.888-7.288-8.571-13.339
							c1.316-6.05,7.288-9.888,13.339-8.571C51.705,178.952,55.543,184.924,54.227,190.974z"/>
						<path style="opacity:0.43;fill:#A19E9E;" d="M52.077,181.651c1.16,2.239,1.577,4.88,0.999,7.536
							c-1.316,6.05-7.288,9.888-13.339,8.572c-2.646-0.576-4.869-2.042-6.422-4.016c1.482,2.86,4.179,5.065,7.573,5.803
							c6.05,1.316,12.022-2.521,13.339-8.571C54.967,187.57,54.076,184.19,52.077,181.651z"/>
					</g>
					<g>
						<path style="fill:#5F71D5;" d="M86.956,186.622c-1.316,6.05-7.288,9.888-13.339,8.571c-6.05-1.316-9.888-7.288-8.572-13.339
							c1.317-6.05,7.288-9.888,13.339-8.571C84.435,174.599,88.273,180.571,86.956,186.622z"/>
						<path style="opacity:0.43;fill:#A19E9E;" d="M84.807,177.298c1.16,2.239,1.577,4.88,0.999,7.536
							c-1.317,6.05-7.289,9.888-13.339,8.571c-2.646-0.576-4.869-2.042-6.422-4.016c1.482,2.86,4.179,5.064,7.573,5.803
							c6.05,1.316,12.022-2.521,13.339-8.572C87.697,183.217,86.806,179.838,84.807,177.298z"/>
					</g>
					<g>
						<path style="fill:#5F71D5;" d="M57.836,218.964c-1.316,6.05-7.288,9.888-13.339,8.571c-6.05-1.316-9.888-7.288-8.571-13.339
							c1.316-6.05,7.288-9.888,13.339-8.572C55.315,206.941,59.153,212.913,57.836,218.964z"/>
						<path style="opacity:0.43;fill:#A19E9E;" d="M55.687,209.641c1.16,2.239,1.577,4.88,0.999,7.536
							c-1.316,6.05-7.288,9.888-13.339,8.571c-2.646-0.576-4.869-2.042-6.422-4.016c1.482,2.861,4.179,5.064,7.573,5.803
							c6.05,1.316,12.022-2.521,13.339-8.572C58.577,215.559,57.686,212.18,55.687,209.641z"/>
					</g>
					<g>
						<path style="fill:#5F71D5;" d="M82.917,211.249c-1.316,6.05-7.288,9.888-13.339,8.571c-6.05-1.316-9.888-7.288-8.571-13.339
							c1.316-6.05,7.288-9.888,13.339-8.571C80.396,199.227,84.233,205.199,82.917,211.249z"/>
						<path style="opacity:0.43;fill:#A19E9E;" d="M80.768,201.926c1.16,2.239,1.577,4.88,0.999,7.536
							c-1.316,6.05-7.288,9.888-13.339,8.571c-2.646-0.576-4.869-2.042-6.422-4.016c1.482,2.86,4.179,5.064,7.573,5.803
							c6.05,1.316,12.022-2.521,13.339-8.572C83.658,207.845,82.766,204.466,80.768,201.926z"/>
					</g>
					<g>
						<path style="fill:#5F71D5;" d="M90.115,230.9c-1.316,6.05-7.288,9.888-13.339,8.571c-6.05-1.316-9.888-7.288-8.571-13.339
							c1.316-6.05,7.288-9.888,13.339-8.571C87.594,218.878,91.431,224.85,90.115,230.9z"/>
						<path style="opacity:0.43;fill:#A19E9E;" d="M90.115,230.9c-1.316,6.05-7.288,9.888-13.339,8.571
							c-6.05-1.316-9.888-7.288-8.571-13.339c1.316-6.05,7.288-9.888,13.339-8.571C87.594,218.878,91.431,224.85,90.115,230.9z"/>
						<path style="opacity:0.43;fill:#A19E9E;" d="M87.966,221.577c1.16,2.239,1.577,4.879,0.999,7.536
							c-1.316,6.05-7.288,9.888-13.339,8.571c-2.646-0.576-4.869-2.042-6.422-4.016c1.482,2.86,4.179,5.064,7.573,5.803
							c6.05,1.316,12.022-2.521,13.339-8.572C90.856,227.496,89.964,224.117,87.966,221.577z"/>
					</g>
					<g>
						<path style="fill:#5F71D5;" d="M69.823,240.496c-1.316,6.05-7.288,9.888-13.339,8.571c-6.05-1.316-9.888-7.288-8.571-13.339
							c1.316-6.05,7.288-9.888,13.339-8.571C67.302,228.474,71.139,234.446,69.823,240.496z"/>
						<path style="opacity:0.43;fill:#A19E9E;" d="M69.823,240.496c-1.316,6.05-7.288,9.888-13.339,8.571
							c-6.05-1.316-9.888-7.288-8.571-13.339c1.316-6.05,7.288-9.888,13.339-8.571C67.302,228.474,71.139,234.446,69.823,240.496z"
							/>
						<path style="opacity:0.43;fill:#A19E9E;" d="M67.674,231.173c1.16,2.239,1.577,4.88,0.999,7.536
							c-1.316,6.05-7.288,9.888-13.339,8.571c-2.646-0.576-4.869-2.042-6.422-4.016c1.482,2.861,4.179,5.064,7.573,5.803
							c6.05,1.316,12.022-2.521,13.339-8.572C70.564,237.092,69.672,233.713,67.674,231.173z"/>
					</g>
					<g>
						<path style="fill:#5F71D5;" d="M98.355,251.824c-1.316,6.05-7.288,9.888-13.339,8.572c-6.05-1.316-9.888-7.288-8.571-13.339
							c1.316-6.05,7.288-9.888,13.339-8.572C95.834,239.801,99.672,245.773,98.355,251.824z"/>
						<path style="opacity:0.43;fill:#A19E9E;" d="M96.206,242.501c1.16,2.239,1.577,4.88,0.999,7.536
							c-1.316,6.05-7.288,9.888-13.339,8.571c-2.646-0.576-4.869-2.042-6.422-4.016c1.482,2.86,4.179,5.064,7.573,5.803
							c6.05,1.316,12.022-2.521,13.339-8.572C99.096,248.419,98.205,245.04,96.206,242.501z"/>
					</g>
					<g>
						<path style="fill:#5F71D5;" d="M96.827,218.242c-1.316,6.05-7.288,9.888-13.339,8.572c-6.05-1.316-9.888-7.288-8.572-13.339
							c1.316-6.05,7.288-9.888,13.339-8.571C94.305,206.219,98.143,212.191,96.827,218.242z"/>
						<path style="opacity:0.43;fill:#A19E9E;" d="M94.677,208.919c1.16,2.239,1.577,4.88,0.999,7.536
							c-1.316,6.05-7.288,9.888-13.339,8.571c-2.646-0.576-4.869-2.042-6.422-4.016c1.482,2.86,4.179,5.064,7.573,5.803
							c6.05,1.316,12.022-2.521,13.339-8.572C97.567,214.837,96.676,211.458,94.677,208.919z"/>
					</g>
					<g>
						<path style="fill:#5F71D5;" d="M72.734,227.119c-1.316,6.05-7.288,9.888-13.339,8.571c-6.05-1.316-9.888-7.288-8.571-13.339
							c1.316-6.05,7.288-9.888,13.339-8.571C70.212,215.096,74.05,221.068,72.734,227.119z"/>
						<path style="opacity:0.43;fill:#A19E9E;" d="M70.584,217.796c1.16,2.239,1.577,4.88,0.999,7.536
							c-1.316,6.05-7.288,9.888-13.339,8.572c-2.646-0.576-4.869-2.042-6.422-4.016c1.482,2.86,4.179,5.064,7.573,5.803
							c6.05,1.317,12.022-2.521,13.339-8.571C73.474,223.714,72.583,220.335,70.584,217.796z"/>
					</g>
					<g>
						<path style="fill:#5F71D5;" d="M121.25,252.995c-1.316,6.05-7.288,9.888-13.339,8.572s-9.888-7.288-8.571-13.339
							c1.316-6.05,7.288-9.888,13.339-8.572C118.729,240.973,122.567,246.945,121.25,252.995z"/>
						<path style="opacity:0.43;fill:#A19E9E;" d="M119.101,243.672c1.16,2.239,1.577,4.88,0.999,7.536
							c-1.316,6.05-7.288,9.888-13.339,8.571c-2.646-0.576-4.869-2.042-6.422-4.016c1.482,2.86,4.179,5.064,7.573,5.803
							c6.05,1.316,12.022-2.521,13.339-8.572C121.991,249.591,121.1,246.211,119.101,243.672z"/>
					</g>
					<g>
						<path style="fill:#5F71D5;" d="M118.871,271.069c-1.316,6.05-7.288,9.888-13.339,8.572c-6.05-1.316-9.888-7.288-8.571-13.339
							c1.316-6.05,7.288-9.888,13.339-8.571C116.35,259.046,120.187,265.018,118.871,271.069z"/>
						<path style="opacity:0.43;fill:#A19E9E;" d="M116.722,261.746c1.16,2.239,1.577,4.879,0.999,7.536
							c-1.316,6.05-7.288,9.888-13.339,8.571c-2.646-0.576-4.869-2.042-6.422-4.016c1.482,2.86,4.179,5.065,7.573,5.803
							c6.05,1.316,12.022-2.521,13.339-8.572C119.611,267.664,118.72,264.285,116.722,261.746z"/>
					</g>
					<g>
						<path style="fill:#5F71D5;" d="M113.919,231.206c-1.316,6.05-7.288,9.888-13.339,8.571c-6.05-1.316-9.888-7.288-8.572-13.339
							c1.316-6.05,7.288-9.888,13.339-8.571C111.397,219.183,115.235,225.155,113.919,231.206z"/>
						<path style="opacity:0.43;fill:#A19E9E;" d="M111.769,221.883c1.16,2.239,1.577,4.879,0.999,7.536
							c-1.316,6.05-7.288,9.888-13.339,8.572c-2.646-0.576-4.869-2.042-6.422-4.016c1.482,2.861,4.179,5.065,7.573,5.803
							c6.05,1.316,12.022-2.521,13.339-8.571C114.659,227.801,113.768,224.422,111.769,221.883z"/>
					</g>
					<path style="fill:#F4DA33;" d="M94.822,191.079"/>
				</g>
			</g>
			<g>
				<g>
					<path style="fill:#C76C3F;" d="M760.276,70.892c-8.955,12.306-24.328,16.377-34.336,9.094
						c-10.008-7.283-10.862-23.163-1.908-35.469c5.785-7.95,14.457-14.521,22.215-12.698c10.584,2.486,6.094,11.887,6.094,11.887
						s7.54-7.181,11.807-1.398C770.847,51.387,766.992,61.663,760.276,70.892z"/>
					<path style="fill:#E3841F;" d="M758.699,67.304c-8.955,12.306-24.328,16.377-34.336,9.094
						c-10.008-7.283-10.863-23.163-1.908-35.469c5.785-7.95,14.457-14.521,22.215-12.698c10.584,2.486,6.094,11.887,6.094,11.887
						s7.54-7.181,11.807-1.398C769.27,47.799,765.415,58.075,758.699,67.304z"/>
					<path style="fill:#493851;" d="M745.335,58.368c-3.95,5.429-9.667,7.999-12.769,5.742c-3.102-2.257-2.414-8.488,1.536-13.916
						c3.95-5.429,9.667-7.999,12.769-5.742S749.286,52.939,745.335,58.368z"/>
				</g>
			</g>
			<g>
				<path style="fill:#F4DA33;" d="M782.541,147.509c-0.045,0.019-0.082,0.047-0.125,0.067
					c-7.167-13.335-24.852-18.792-40.896-12.146c-16.044,6.646-24.691,23.009-20.329,37.507c-0.045,0.017-0.091,0.023-0.136,0.041
					c-1.98,0.82-2.921,3.091-2.101,5.072c0.82,1.981,3.091,2.921,5.071,2.101c0.156-0.064,0.293-0.152,0.435-0.234
					c7.813,11.821,24.473,16.38,39.664,10.088c15.191-6.292,23.748-21.296,20.913-35.18c0.158-0.043,0.318-0.078,0.473-0.142
					c1.981-0.82,2.921-3.091,2.101-5.072C786.792,147.629,784.521,146.689,782.541,147.509z"/>
				<g style="opacity:0.43;">
					<path style="fill:#A19E9E;" d="M760.981,140.51c0.528,0.152,0.832,0.703,0.681,1.23c-0.152,0.528-0.703,0.832-1.23,0.681
						c-0.528-0.152-0.832-0.703-0.681-1.23C759.903,140.663,760.454,140.358,760.981,140.51z"/>
					<path style="fill:#A19E9E;" d="M752.241,147.996c0.229,0.066,0.361,0.305,0.295,0.533c-0.066,0.229-0.305,0.361-0.533,0.295
						c-0.229-0.066-0.361-0.305-0.295-0.533C751.773,148.062,752.012,147.93,752.241,147.996z"/>
					<path style="fill:#A19E9E;" d="M768.36,149.564c0.238,0.068,0.375,0.316,0.307,0.554c-0.068,0.238-0.317,0.375-0.554,0.306
						c-0.238-0.068-0.375-0.316-0.307-0.554C767.874,149.633,768.122,149.495,768.36,149.564z"/>
					<path style="fill:#A19E9E;" d="M760.525,147.309c0.238,0.068,0.375,0.317,0.306,0.554c-0.068,0.238-0.316,0.375-0.554,0.307
						c-0.238-0.068-0.375-0.316-0.306-0.554C760.04,147.378,760.288,147.241,760.525,147.309z"/>
					<path style="fill:#A19E9E;" d="M753.584,140.939c0.35,0.101,0.553,0.467,0.452,0.817c-0.101,0.351-0.467,0.553-0.817,0.452
						c-0.35-0.101-0.553-0.467-0.452-0.817C752.868,141.04,753.234,140.838,753.584,140.939z"/>
					<path style="fill:#A19E9E;" d="M767.452,141.751c0.422,0.121,0.666,0.562,0.544,0.984c-0.121,0.422-0.562,0.666-0.984,0.544
						c-0.422-0.121-0.666-0.562-0.544-0.984C766.589,141.874,767.03,141.63,767.452,141.751z"/>
					<path style="fill:#A19E9E;" d="M760.985,151.408c0.598,0.172,0.943,0.796,0.771,1.395c-0.172,0.598-0.796,0.943-1.394,0.771
						c-0.598-0.172-0.943-0.796-0.771-1.395C759.762,151.581,760.386,151.236,760.985,151.408z"/>
					<path style="fill:#A19E9E;" d="M762.886,159.058c0.211,0.061,0.333,0.281,0.272,0.492c-0.061,0.211-0.281,0.333-0.492,0.272
						c-0.211-0.061-0.333-0.281-0.272-0.492C762.455,159.119,762.675,158.997,762.886,159.058z"/>
					<path style="fill:#A19E9E;" d="M755.316,154.806c0.264,0.076,0.416,0.351,0.34,0.615c-0.076,0.264-0.351,0.416-0.615,0.34
						c-0.264-0.076-0.416-0.351-0.34-0.615C754.777,154.882,755.052,154.73,755.316,154.806z"/>
					<path style="fill:#A19E9E;" d="M765.962,154.84c0.211,0.061,0.431-0.061,0.492-0.272c0.061-0.211-0.061-0.431-0.272-0.492
						c-0.211-0.061-0.431,0.061-0.492,0.272C765.629,154.559,765.751,154.78,765.962,154.84z"/>
					<path style="fill:#A19E9E;" d="M760.703,136.085c0.264,0.076,0.416,0.351,0.34,0.615c-0.076,0.264-0.351,0.416-0.615,0.34
						s-0.416-0.351-0.34-0.615C760.163,136.161,760.439,136.009,760.703,136.085z"/>
					<path style="fill:#A19E9E;" d="M775.333,147.197c0.175,0.05,0.276,0.233,0.226,0.408c-0.05,0.175-0.233,0.276-0.409,0.226
						c-0.175-0.051-0.276-0.233-0.226-0.409C774.975,147.247,775.157,147.146,775.333,147.197z"/>
					<path style="fill:#A19E9E;" d="M772.181,156.975c0.475,0.137,0.749,0.632,0.612,1.107c-0.137,0.475-0.632,0.749-1.107,0.613
						c-0.475-0.137-0.749-0.632-0.612-1.107C771.21,157.112,771.706,156.838,772.181,156.975z"/>
				</g>
				<g>
					<defs>
						<path id="SVGID_00000163065053627564821890000005385051998090764941_" d="M782.541,147.509
							c-0.045,0.019-0.082,0.047-0.125,0.067c-7.167-13.335-24.852-18.792-40.896-12.146c-16.044,6.646-24.691,23.009-20.329,37.507
							c-0.045,0.017-0.091,0.023-0.136,0.041c-1.98,0.82-2.921,3.091-2.101,5.072c0.82,1.981,3.091,2.921,5.071,2.101
							c0.156-0.064,0.293-0.152,0.435-0.234c7.813,11.821,24.473,16.38,39.664,10.088c15.191-6.292,23.748-21.296,20.913-35.18
							c0.158-0.043,0.318-0.078,0.473-0.142c1.981-0.82,2.921-3.091,2.101-5.072C786.792,147.629,784.521,146.689,782.541,147.509z"
							/>
					</defs>
					<clipPath id="SVGID_00000116203290920332909270000000940304809912115107_">
						<use xlink:href="#SVGID_00000163065053627564821890000005385051998090764941_"  style="overflow:visible;"/>
					</clipPath>
					<path style="opacity:0.43;clip-path:url(#SVGID_00000116203290920332909270000000940304809912115107_);fill:#A19E9E;" d="
						M724.025,180.15c0,0,41.773,13.895,61.013-25.326l9.307,11.04l-0.117,33.52l-28.713,8.984c0,0-16.574-7.77-18.689-7.755
						C744.711,200.628,724.025,180.15,724.025,180.15z"/>
				</g>
			</g>
			<g>
				<g>
					<path style="fill:#CA413D;" d="M583.392,83.961c-1.75,5.35-7.506,8.268-12.855,6.518c-5.35-1.75-8.268-7.506-6.518-12.855
						c1.75-5.35,7.506-8.268,12.855-6.518C582.224,72.856,585.143,78.611,583.392,83.961z"/>
					<path style="opacity:0.43;fill:#A19E9E;" d="M582.311,75.331c0.842,2.132,0.975,4.559,0.206,6.907
						c-1.75,5.35-7.506,8.268-12.855,6.518c-2.34-0.765-4.214-2.297-5.436-4.226c1.076,2.724,3.311,4.966,6.311,5.948
						c5.35,1.75,11.105-1.168,12.855-6.518C584.377,80.951,583.884,77.812,582.311,75.331z"/>
				</g>
				<path style="fill:none;stroke:#5BA080;stroke-width:1.6305;stroke-miterlimit:10;" d="M547.167,67.216
					c0,0,17.867-16.386,23.163-29.109c0,0,11.926,22.431,4.455,38.34"/>
				<g>
					<path style="fill:#CA413D;" d="M555.407,74.806c-1.75,5.35-7.506,8.268-12.855,6.518c-5.35-1.75-8.268-7.506-6.518-12.855
						c1.75-5.35,7.506-8.268,12.855-6.518C554.239,63.701,557.157,69.456,555.407,74.806z"/>
					<path style="opacity:0.43;fill:#A19E9E;" d="M554.326,66.176c0.842,2.132,0.975,4.558,0.206,6.907
						c-1.75,5.35-7.506,8.268-12.855,6.518c-2.34-0.765-4.214-2.297-5.437-4.226c1.076,2.724,3.311,4.966,6.312,5.948
						c5.35,1.75,11.105-1.168,12.855-6.518C556.392,71.796,555.899,68.657,554.326,66.176z"/>
				</g>
				<g>
					<path style="fill:#872A3E;" d="M543.66,64.786c2.418,1.823,5.221,2.445,8.189,2.679
						C549.03,68.843,544.961,67.767,543.66,64.786L543.66,64.786z"/>
				</g>
				<g>
					<path style="fill:#872A3E;" d="M571.144,74.769c2.418,1.823,5.221,2.445,8.189,2.679
						C576.514,78.826,572.444,77.749,571.144,74.769L571.144,74.769z"/>
				</g>
				<path style="fill:#5BA080;" d="M570.337,37.253c0,0,7.288-2.417,13.796,1.372c6.507,3.789,10.644,12.949,10.644,12.949
					s-7.717,1.043-14.354-1.608C573.785,47.316,570.337,37.253,570.337,37.253z"/>
			</g>
			<g>
				<path style="fill:#CA413D;" d="M220.086,96.588c3.31,7.45-1.496,25.154-3.721,32.437c-0.529,1.732-2.462,2.591-4.102,1.823
					c-6.897-3.231-23.256-11.53-26.566-18.98c-4.219-9.496,12.081-19.149,12.081-19.149S215.866,87.092,220.086,96.588z"/>
				<g>
					<defs>
						<path id="SVGID_00000052796384151091491790000013226727133750992555_" d="M220.086,96.588
							c3.31,7.45-1.496,25.154-3.721,32.437c-0.529,1.732-2.462,2.591-4.102,1.823c-6.897-3.231-23.256-11.53-26.566-18.98
							c-4.219-9.496,12.081-19.149,12.081-19.149S215.866,87.092,220.086,96.588z"/>
					</defs>
					<clipPath id="SVGID_00000139258260595640111100000017820599290938198168_">
						<use xlink:href="#SVGID_00000052796384151091491790000013226727133750992555_"  style="overflow:visible;"/>
					</clipPath>
					<path style="opacity:0.43;clip-path:url(#SVGID_00000139258260595640111100000017820599290938198168_);fill:#A19E9E;" d="
						M184.305,107.866l7.751-5.094l6.977,3.4l2.734-6.789l8.735,1.579l0.469-5.331l9.021-1.889c0,0-10.271-8.151-11.301-7.887
						c-1.029,0.265-17.235,7.658-17.235,7.658L184.305,107.866z"/>
					<path style="opacity:0.43;clip-path:url(#SVGID_00000139258260595640111100000017820599290938198168_);fill:#A19E9E;" d="
						M217.413,92.453c0,0,3.504,20.494-10.509,44.289c-14.013,23.796,26.005-5.087,26.005-5.087l2.712-52.717L217.413,92.453z"/>
				</g>
				<g>
					<defs>
						<path id="SVGID_00000020373646280489737280000004734995608438005165_" d="M220.086,96.588
							c3.31,7.45-1.496,25.154-3.721,32.437c-0.529,1.732-2.462,2.591-4.102,1.823c-6.897-3.231-23.256-11.53-26.566-18.98
							c-4.219-9.496,12.081-19.149,12.081-19.149S215.866,87.092,220.086,96.588z"/>
					</defs>
					<clipPath id="SVGID_00000038381156896857537580000004170352573934105735_">
						<use xlink:href="#SVGID_00000020373646280489737280000004734995608438005165_"  style="overflow:visible;"/>
					</clipPath>
					<path style="clip-path:url(#SVGID_00000038381156896857537580000004170352573934105735_);fill:#5BA080;" d="M184.151,105.498
						l7.172-4.836l6.661,3.541l2.401-6.641l8.271,1.785l0.305-5.258l8.451-1.636c0,0-9.887-8.322-10.85-8.087
						c-0.963,0.235-16.042,7.128-16.042,7.128L184.151,105.498z"/>
				</g>
				
					<rect x="195.961" y="88.031" transform="matrix(0.9139 -0.406 0.406 0.9139 -20.2494 88.0284)" style="fill:#5BA080;" width="2.761" height="7.414"/>
				<g>
					<path style="fill:#F4DA33;" d="M193.1,113.505c0.48,1.079,0.415,2.156-0.145,2.405s-1.402-0.425-1.882-1.504
						c-0.479-1.079-0.415-2.156,0.145-2.405C191.778,111.752,192.621,112.426,193.1,113.505z"/>
					<path style="fill:#F4DA33;" d="M201.682,110.645c0.48,1.079,0.415,2.156-0.145,2.405c-0.559,0.249-1.402-0.425-1.882-1.504
						c-0.48-1.079-0.415-2.156,0.145-2.405C200.36,108.893,201.202,109.566,201.682,110.645z"/>
					<path style="fill:#F4DA33;" d="M201.254,118.982c0.48,1.079,0.415,2.156-0.145,2.405c-0.56,0.249-1.402-0.425-1.882-1.504
						c-0.48-1.079-0.415-2.156,0.145-2.405C199.932,117.23,200.775,117.903,201.254,118.982z"/>
					<path style="fill:#F4DA33;" d="M210.448,106.75c0.48,1.079,0.415,2.156-0.145,2.405c-0.56,0.249-1.402-0.425-1.882-1.504
						c-0.48-1.079-0.415-2.156,0.145-2.405C209.126,104.997,209.969,105.671,210.448,106.75z"/>
					<path style="fill:#F4DA33;" d="M209.785,115.885c0.48,1.079,0.415,2.156-0.145,2.405c-0.56,0.249-1.402-0.425-1.882-1.504
						c-0.479-1.079-0.415-2.156,0.145-2.405C208.463,114.132,209.306,114.806,209.785,115.885z"/>
					<path style="fill:#F4DA33;" d="M215.867,121.677c0.48,1.079,0.415,2.156-0.145,2.405c-0.56,0.249-1.402-0.425-1.882-1.504
						c-0.48-1.079-0.415-2.156,0.145-2.405C214.545,119.924,215.388,120.598,215.867,121.677z"/>
					<path style="fill:#F4DA33;" d="M207.918,124.68c0.48,1.079,0.415,2.156-0.145,2.405c-0.56,0.249-1.402-0.425-1.882-1.504
						c-0.48-1.079-0.415-2.156,0.145-2.405C206.595,122.927,207.438,123.6,207.918,124.68z"/>
					<path style="fill:#F4DA33;" d="M217.758,111.65c0.48,1.079,0.415,2.156-0.145,2.405c-0.56,0.249-1.402-0.425-1.882-1.504
						c-0.48-1.079-0.415-2.156,0.145-2.405C216.436,109.897,217.278,110.57,217.758,111.65z"/>
					<path style="fill:#F4DA33;" d="M218.861,102.059c0.48,1.079,0.415,2.156-0.145,2.405c-0.56,0.249-1.402-0.425-1.882-1.504
						c-0.48-1.079-0.415-2.156,0.145-2.405C217.539,100.306,218.382,100.979,218.861,102.059z"/>
				</g>
			</g>
			<g>
				<g>
					<path style="fill:#5BA080;" d="M630.704,261.967c12.312,27.71,44.757,40.193,72.467,27.881
						c27.71-12.312,40.193-44.757,27.88-72.467L630.704,261.967z"/>
					<path style="fill:#5BA080;" d="M680.909,299.591c-23.667,0-45.167-13.972-54.774-35.594l109.486-48.647
						c6.497,14.622,6.911,30.899,1.165,45.833c-5.745,14.934-16.963,26.736-31.585,33.233
						C697.474,297.85,689.3,299.591,680.909,299.591L680.909,299.591z"/>
					<path style="fill:#ACE568;" d="M630.704,261.967c12.312,27.71,44.757,40.193,72.467,27.881
						c27.71-12.312,40.193-44.757,27.88-72.467L630.704,261.967z"/>
					<path style="fill:#CA413D;" d="M725.622,219.793c10.98,24.712-0.152,53.645-24.864,64.625
						c-24.712,10.98-53.645-0.152-64.625-24.864L725.622,219.793z"/>
					<path style="fill:#493851;" d="M650.764,266.663L650.764,266.663L650.764,266.663c0.558-4.153,4.377-7.067,8.529-6.509l0,0l0,0
						C658.735,264.307,654.917,267.221,650.764,266.663z"/>
					<path style="fill:#493851;" d="M668.727,280.03L668.727,280.03L668.727,280.03c-0.944-4.082,1.599-8.157,5.681-9.102l0,0l0,0
						C675.353,275.011,672.809,279.086,668.727,280.03z"/>
					<path style="fill:#493851;" d="M693.301,280.468L693.301,280.468L693.301,280.468c-3.845-1.665-5.612-6.132-3.947-9.977l0,0h0
						C693.199,272.156,694.966,276.623,693.301,280.468z"/>
					<g>
						<path style="fill:#F1E6BC;" d="M666.886,259.831L666.886,259.831L666.886,259.831c-1.587-3.008-0.435-6.734,2.574-8.321l0,0
							l0,0C671.047,254.518,669.895,258.244,666.886,259.831z"/>
						<path style="fill:#F1E6BC;" d="M704.63,244.225L704.63,244.225L704.63,244.225c-3.321,0.735-6.609-1.362-7.344-4.683l0,0l0,0
							C700.607,238.808,703.895,240.904,704.63,244.225z"/>
						<path style="fill:#F1E6BC;" d="M688.388,256.204L688.388,256.204L688.388,256.204c-3.215-1.11-4.922-4.616-3.812-7.831l0,0
							l0,0C687.791,249.483,689.498,252.989,688.388,256.204z"/>
					</g>
					<path style="fill:#493851;" d="M712.653,268.952L712.653,268.952L712.653,268.952c-4.183,0.249-7.775-2.941-8.023-7.123l0,0
						l0,0C708.812,261.581,712.404,264.77,712.653,268.952z"/>
					<path style="fill:#493851;" d="M722.549,251.763L722.549,251.763L722.549,251.763c-3.49,2.318-8.199,1.368-10.517-2.122l0,0
						l0,0C715.522,247.323,720.231,248.273,722.549,251.763z"/>
					<path style="fill:#493851;" d="M722.467,231.335L722.467,231.335L722.467,231.335c-2.083,3.635-6.719,4.894-10.354,2.81l0,0
						l0,0C714.196,230.51,718.832,229.252,722.467,231.335z"/>
				</g>
				<g>
					<defs>
						<path id="SVGID_00000003821818461466154960000011450932877219229093_" d="M680.909,299.591
							c-23.667,0-45.167-13.972-54.774-35.594l109.486-48.647c6.497,14.622,6.911,30.899,1.165,45.833
							c-5.745,14.934-16.963,26.736-31.585,33.233C697.474,297.85,689.3,299.591,680.909,299.591L680.909,299.591z"/>
					</defs>
					<clipPath id="SVGID_00000076598025148039427940000013507294048973690511_">
						<use xlink:href="#SVGID_00000003821818461466154960000011450932877219229093_"  style="overflow:visible;"/>
					</clipPath>
				</g>
			</g>
			<g>
				<g>
					<path style="fill:#ACE568;" d="M108.626,71.828c0.251-0.577,0.474-1.174,0.668-1.788c2.754-8.755-1.716-18.366-10.196-21.876
						c-9.609-3.977-20.437,0.996-23.78,10.681c-0.107,0.309-0.204,0.62-0.293,0.931c-1.424,4.979-4.9,8.732-8.771,12.173
						c-14.702,13.07-21.337,27.156-14.789,37.139c6.326,9.645,13.46,6.597,15.134,6.806c4.271,0.534,8.436,2,11.637,4.876
						c1.649,1.481,8.234,6.627,15.215,3.715c10.251-4.277,21.13-17.36,14.621-38.413C106.625,81.394,106.673,76.318,108.626,71.828z
						"/>
					<path style="fill:#493851;" d="M96.2,52.532c-0.027-0.45-0.492-11.117,13.372-17.87l1.065,2.185
						c-12.34,6.01-12.03,15.161-12.01,15.547L96.2,52.532z"/>
					<path style="fill:#79A243;" d="M90.826,48.627c3.883,2.012,7.97,2.666,12.168,3.626C98.903,54.196,92.896,52.901,90.826,48.627
						L90.826,48.627z"/>
				</g>
				<g>
					<defs>
						<path id="SVGID_00000144296960541532195790000015112369215721884859_" d="M108.626,71.828
							c0.251-0.577,0.474-1.174,0.668-1.788c2.754-8.755-1.716-18.366-10.196-21.876c-9.609-3.977-20.437,0.996-23.78,10.681
							c-0.107,0.309-0.204,0.62-0.293,0.931c-1.424,4.979-4.9,8.732-8.771,12.173c-14.702,13.07-21.337,27.156-14.789,37.139
							c6.326,9.645,13.46,6.597,15.134,6.806c4.271,0.534,8.436,2,11.637,4.876c1.649,1.481,8.234,6.627,15.215,3.715
							c10.251-4.277,21.13-17.36,14.621-38.413C106.625,81.394,106.673,76.318,108.626,71.828z"/>
					</defs>
					<clipPath id="SVGID_00000114794763124405843380000008525201201598498464_">
						<use xlink:href="#SVGID_00000144296960541532195790000015112369215721884859_"  style="overflow:visible;"/>
					</clipPath>
					<path style="opacity:0.43;clip-path:url(#SVGID_00000114794763124405843380000008525201201598498464_);fill:#A19E9E;" d="
						M115.921,54.89c0,0-19.596,17.775-20.114,30.053c-0.519,12.279-0.519,5.01-0.519,12.279s1.191,21.461-20.219,21.303
						c-21.41-0.158,2.899,29.577,2.899,29.577s46.393-1.319,45.072-32.046C121.719,85.328,115.921,54.89,115.921,54.89z"/>
				</g>
			</g>
		</g>
	</g>
</g>
<g id="TEXTS">
	<path id="SVGID_x5F_00000049937001268360747440000008427465138577369276_x5F_" style="fill:none;" d="M440.57,80.761
		c0,16.919-13.716,30.635-30.635,30.635c-16.919,0-30.635-13.716-30.635-30.635c0-16.919,13.716-30.635,30.635-30.635
		C426.854,50.126,440.57,63.842,440.57,80.761z"/>
	<text>	<textPath  xlink:href="#SVGID_x5F_00000049937001268360747440000008427465138577369276_x5F_" startOffset="4996.1987%">
<tspan  style="fill:#5BA080; font-family:'Comfortaa-Bold'; font-size:11.7475px; letter-spacing:400;">ORGANIC</tspan>	</textPath>
</text>
	<path id="SVGID_x5F_00000009547994422473185630000007940760468408969398_x5F_" style="fill:none;" d="M450.885,77.965
		c0-22.661-18.371-41.032-41.032-41.032c-22.661,0-41.032,18.37-41.032,41.032c0,22.661,18.371,41.032,41.032,41.032
		C432.514,118.996,450.885,100.626,450.885,77.965z"/>
	<text>	<textPath  xlink:href="#SVGID_x5F_00000009547994422473185630000007940760468408969398_x5F_" startOffset="33.2357%">
<tspan  style="fill:#5BA080; font-family:'Comfortaa-Bold'; font-size:7.3649px; letter-spacing:400;">SUPERMARKET</tspan>	</textPath>
</text>
	<g>
		
			<text transform="matrix(1 0 0 1 398.9268 274.1446)" style="fill:#5BA080; font-family:'Quicksand-Bold'; font-size:14.0892px; letter-spacing:2;">@organicmarket</text>
	</g>
	
		<text transform="matrix(1 0 0 1 159.7329 206.6846)" style="fill:#E3841F; font-family:'ArimaMadurai-Black'; font-size:70.4294px;">Fresh Everyday</text>
</g>
</svg>
